<svg xmlns="http://www.w3.org/2000/svg" xmlns:xlink="http://www.w3.org/1999/xlink" width="800" zoomAndPan="magnify" viewBox="0 0 600 599.999999" height="800" preserveAspectRatio="xMidYMid meet" version="1.0"><path fill="#ffffff" d="M 290.585938 69.683594 C 272.1875 86.269531 258.332031 104.535156 248.148438 125.625 C 223.285156 177.125 230.195312 234.910156 267.101562 284.101562 C 269.980469 287.9375 274.449219 293.308594 277.03125 296.03125 L 281.722656 300.984375 L 284.183594 293.179688 C 292.953125 265.363281 307.527344 240.035156 327.019531 218.738281 C 333.460938 211.699219 346.894531 200.542969 356.8125 193.992188 L 366 187.921875 L 365.984375 182.273438 C 365.953125 170.152344 362.3125 151.613281 357.363281 138.375 C 351.761719 123.386719 341.757812 106.222656 330.261719 91.875 C 324.625 84.839844 303.769531 63.867188 300.867188 62.3125 C 299.792969 61.738281 297.875 63.113281 290.585938 69.683594 M 151.125 201.460938 C 127.199219 203.980469 107.375 209.710938 86.332031 220.183594 C 74.824219 225.914062 65.25 231.644531 65.25 232.808594 C 65.25 233.1875 67.125 237.722656 69.417969 242.882812 C 89.570312 288.277344 123.484375 321.003906 164.316406 334.460938 C 196.378906 345.027344 229.675781 344.402344 264.75 332.570312 C 270.320312 330.695312 277.542969 327.90625 280.804688 326.378906 L 286.738281 323.597656 L 280.054688 318.746094 C 259.484375 303.808594 239.863281 283.203125 227.988281 264.050781 C 218.105469 248.117188 209.816406 227.757812 205.945312 209.902344 C 205.6875 208.714844 204.839844 207.734375 203.820312 207.4375 C 197.644531 205.652344 189.207031 203.691406 183.75 202.773438 C 177.351562 201.699219 156.734375 200.867188 151.125 201.460938 M 427.5 201.46875 C 396.84375 204.203125 369.910156 215.109375 345.6875 234.59375 C 337.472656 241.203125 324.105469 255.332031 316.980469 264.9375 C 311 273 302.25 286.765625 302.25 288.113281 C 302.25 288.464844 306.382812 288.75 311.4375 288.753906 C 354.71875 288.765625 399.777344 304.378906 429.160156 329.542969 C 432.34375 332.269531 435.230469 334.5 435.578125 334.5 C 436.863281 334.5 449.710938 329.03125 456.675781 325.519531 C 488.386719 309.527344 515.015625 279.007812 532.132812 239.03125 C 535.449219 231.285156 536.296875 232.648438 523.875 225.769531 C 500.800781 212.992188 477.828125 205.046875 456.75 202.5625 C 449.210938 201.675781 432.289062 201.042969 427.5 201.46875 M 319.5 304.789062 C 319.5 305.019531 320.84375 309.804688 322.488281 315.421875 C 335.945312 361.453125 335.21875 398.933594 320.105469 437.851562 L 317.105469 445.582031 L 321.363281 451.144531 C 327.007812 458.511719 340.113281 470.972656 348.417969 476.867188 C 373.246094 494.492188 405.042969 505.507812 438.816406 508.175781 L 445.253906 508.6875 L 446.171875 504.28125 C 450.804688 481.980469 452.6875 463.992188 451.890625 449.625 C 450.042969 416.273438 440.972656 389.695312 423.367188 366.039062 C 406.191406 342.957031 384.152344 326.417969 354.960938 314.707031 C 342.949219 309.886719 319.5 303.328125 319.5 304.789062 M 303.355469 330.816406 C 282.160156 347.066406 258.097656 358.480469 232.5 364.414062 C 219.203125 367.5 209.804688 368.355469 191.808594 368.125 L 174.742188 367.90625 L 172.199219 371.679688 C 161.074219 388.199219 154.117188 405.945312 149.867188 428.625 C 148.410156 436.40625 148.179688 440.164062 148.160156 456.375 C 148.140625 476.5625 148.96875 484.554688 152.722656 500.4375 L 154.628906 508.5 L 157.21875 508.5 C 162.460938 508.5 174.664062 506.863281 185.25 504.742188 C 234.582031 494.851562 272.414062 468.003906 293.179688 428.152344 C 303.257812 408.8125 308.601562 388.753906 310.546875 362.964844 C 311.402344 351.605469 311.007812 330.75 309.878906 327.699219 C 309.382812 326.367188 308.769531 326.660156 303.355469 330.816406 " fill-opacity="1" fill-rule="evenodd"/></svg>